<svg aria-hidden="true" style="position: absolute; width: 0; height: 0; overflow: hidden;" version="1.1" xmlns="http://www.w3.org/2000/svg" xmlns:xlink="http://www.w3.org/1999/xlink">
<defs>
<symbol id="icon-fa-solid_award" viewBox="0 0 24 32">
  <path d="M6.043 22.663c-0.541-0.543-0.259-0.39-1.563-0.741-0.592-0.159-1.112-0.466-1.582-0.832l-2.823 6.952c-0.273 0.673 0.237 1.404 0.96 1.377l3.278-0.126 2.255 2.393c0.498 0.527 1.371 0.363 1.645-0.31l3.239-7.976c-0.675 0.377-1.423 0.599-2.197 0.599-1.213 0-2.353-0.474-3.211-1.336zM23.818 28.043l-2.823-6.952c-0.47 0.367-0.991 0.673-1.582 0.832-1.311 0.353-1.024 0.199-1.563 0.741-0.858 0.861-1.999 1.336-3.212 1.336-0.774 0-1.523-0.222-2.197-0.599l3.239 7.976c0.273 0.673 1.147 0.837 1.645 0.31l2.256-2.393 3.279 0.126c0.723 0.028 1.233-0.704 0.96-1.377zM16.364 21.249c0.951-0.972 1.060-0.888 2.414-1.259 0.864-0.237 1.54-0.928 1.771-1.811 0.465-1.775 0.345-1.561 1.615-2.859 0.633-0.647 0.88-1.59 0.648-2.474-0.465-1.774-0.465-1.526 0-3.302 0.231-0.884-0.016-1.827-0.648-2.474-1.27-1.299-1.149-1.085-1.615-2.859-0.231-0.884-0.907-1.574-1.771-1.811-1.735-0.476-1.526-0.351-2.797-1.651-0.633-0.647-1.556-0.9-2.42-0.663-1.734 0.475-1.492 0.476-3.229 0-0.864-0.237-1.787 0.016-2.42 0.663-1.27 1.299-1.061 1.175-2.796 1.651-0.864 0.237-1.54 0.928-1.771 1.811-0.465 1.774-0.345 1.561-1.615 2.859-0.633 0.647-0.88 1.59-0.648 2.474 0.465 1.773 0.465 1.525 0 3.301-0.231 0.884 0.016 1.827 0.648 2.474 1.27 1.299 1.149 1.084 1.615 2.859 0.231 0.884 0.907 1.574 1.771 1.811 1.393 0.381 1.496 0.321 2.413 1.259 0.823 0.842 2.106 0.993 3.095 0.364 0.396-0.252 0.855-0.386 1.323-0.386s0.928 0.134 1.323 0.386c0.989 0.629 2.271 0.478 3.094-0.364zM6.076 10.996c0-3.314 2.628-6.001 5.87-6.001s5.87 2.687 5.87 6.001c0 3.314-2.628 6.001-5.87 6.001s-5.87-2.687-5.87-6.001z"></path>
</symbol>
<symbol id="icon-bx_bx-stats" viewBox="0 0 55 32">
  <path d="M49.315 14.036c-0.658 0.005-1.309 0.13-1.923 0.37l-6.56-5.468c0.161-0.596 0.276-1.215 0.276-1.866 0-3.861-3.048-6.964-6.839-6.964s-6.839 3.103-6.839 6.964c0 1.103 0.274 2.131 0.717 3.056l-7.958 9.577c-0.319-0.061-0.642-0.093-0.966-0.098-0.49 0-0.952 0.084-1.401 0.206l-7.012-7.14c0.123-0.454 0.205-0.925 0.205-1.423 0-3.087-2.44-5.571-5.471-5.571s-5.471 2.485-5.471 5.571c0 3.087 2.44 5.571 5.471 5.571 0.49 0 0.952-0.084 1.401-0.206l7.012 7.14c-0.131 0.463-0.2 0.942-0.205 1.423 0 3.087 2.44 5.571 5.472 5.571s5.471-2.485 5.471-5.571c0-0.66-0.131-1.281-0.336-1.869l7.969-9.588c0.621 0.184 1.264 0.315 1.942 0.315 1.080-0.006 2.142-0.274 3.1-0.783l6.563 5.468c-0.051 0.293-0.081 0.589-0.088 0.886 0 3.087 2.44 5.571 5.472 5.571s5.471-2.485 5.471-5.571c0-3.087-2.44-5.571-5.471-5.571z"></path>
</symbol>
<symbol id="icon-clarity_users-line" viewBox="0 0 32 32">
  <path d="M15.894 14.868c2.869 0 5.101-2.33 5.101-5.19s-2.338-5.084-5.208-5.084-5.101 2.33-5.101 5.084c0 2.86 2.338 5.19 5.208 5.19zM15.787 6.712c0.106 0 0.106 0 0 0 1.7 0 3.082 1.377 3.082 3.072s-1.382 2.966-3.082 2.966-2.976-1.377-2.976-2.966c0-1.695 1.382-3.072 2.976-3.072z"></path>
  <path d="M31.622 14.232c-2.019-1.801-4.676-2.754-7.439-2.648h-0.85c-0.213 0.847-0.531 1.589-0.956 2.224 0.638-0.106 1.169-0.106 1.807-0.106 2.019-0.106 4.039 0.53 5.633 1.695v7.626h2.126v-8.474l-0.319-0.318z"></path>
  <path d="M21.739 4.806c0.531-1.271 2.019-1.907 3.401-1.377 1.275 0.53 1.913 2.012 1.382 3.389-0.425 0.953-1.382 1.589-2.338 1.589-0.213 0-0.531 0-0.744-0.106 0.106 0.53 0.106 1.059 0.106 1.483v0.636c0.213 0 0.425 0.106 0.638 0.106 2.657 0 4.782-2.118 4.782-4.66 0-2.648-2.126-4.766-4.676-4.766-1.7 0-3.188 0.847-4.038 2.33 0.531 0.318 1.063 0.741 1.488 1.377z"></path>
  <path d="M9.623 13.915c-0.425-0.636-0.744-1.377-0.956-2.224h-0.85c-2.763-0.106-5.42 0.847-7.439 2.542l-0.319 0.318v8.474h2.126v-7.626c1.7-1.165 3.613-1.801 5.633-1.695 0.638 0 1.275 0.106 1.807 0.212z"></path>
  <path d="M7.816 10.42c0.213 0 0.425 0 0.638-0.106v-0.635c0-0.53 0-1.059 0.106-1.483-0.213 0.106-0.531 0.106-0.744 0.106-1.382 0-2.551-1.165-2.551-2.542s1.169-2.542 2.551-2.542c1.063 0 2.019 0.636 2.444 1.589 0.425-0.53 1.063-1.059 1.594-1.483-1.382-2.224-4.251-2.966-6.483-1.589s-2.976 4.237-1.594 6.461c0.85 1.377 2.338 2.224 4.038 2.224z"></path>
  <path d="M24.609 20.588l-0.213-0.318c-2.126-2.33-5.101-3.707-8.29-3.601-3.188-0.106-6.27 1.271-8.396 3.601l-0.213 0.318v8.050c0 0.953 0.744 1.801 1.807 1.801h13.603c0.956 0 1.807-0.847 1.807-1.801v-8.050h-0.106zM22.483 28.32h-12.859v-6.991c1.7-1.695 4.038-2.542 6.483-2.542 2.338-0.106 4.676 0.847 6.377 2.542v6.991z"></path>
</symbol>
<symbol id="icon-carbon_notebook" viewBox="0 0 32 32">
  <path d="M19.428 9.083h7.999v2.297h-7.999v-2.297z"></path>
  <path d="M19.428 14.825h7.999v2.297h-7.999v-2.297z"></path>
  <path d="M19.428 20.567h7.999v2.297h-7.999v-2.297z"></path>
  <path d="M29.712 3.341h-27.424c-0.606 0.001-1.187 0.243-1.615 0.673s-0.669 1.014-0.67 1.623v20.672c0.001 0.609 0.242 1.193 0.67 1.623s1.009 0.673 1.615 0.673h27.424c0.606-0.001 1.187-0.243 1.615-0.674s0.669-1.014 0.67-1.623v-20.672c-0.001-0.609-0.242-1.193-0.67-1.623s-1.009-0.673-1.615-0.673zM2.288 5.638h12.569v20.672h-12.569v-20.672zM17.142 26.31v-20.672h12.569l0.002 20.672h-12.571z"></path>
</symbol>
<symbol id="icon-ant-design_shop-twotone" viewBox="0 0 32 32">
  <path fill="#0d5c63" opacity="0.15" style="fill: var(--color1, #0d5c63)" d="M29.1 9.167h-26.2c-0.012 0-0.020 0.008-0.020 0.020v3.604c0 2.363 1.96 4.279 4.372 4.279 1.628 0 3.048-0.869 3.804-2.161 0.116-0.202 0.336-0.328 0.572-0.328s0.452 0.126 0.572 0.328c0.752 1.292 2.172 2.161 3.8 2.161 1.632 0 3.056-0.873 3.804-2.169 0.116-0.198 0.328-0.32 0.556-0.32h0.024c0.232 0 0.44 0.122 0.556 0.32 0.752 1.296 2.176 2.169 3.808 2.169 2.412 0 4.372-1.916 4.372-4.279v-3.604c0-0.012-0.008-0.020-0.020-0.020z"></path>
  <path fill="#0d5c63" style="fill: var(--color1, #0d5c63)" d="M30.8 6.326v-5.061c0-0.699-0.572-1.264-1.28-1.264h-27.040c-0.708 0-1.28 0.565-1.28 1.264v5.061c-0.668 0.040-1.2 0.589-1.2 1.26v5.204c-0.003 0.956 0.193 1.903 0.576 2.782 0.172 0.403 0.384 0.782 0.624 1.142v13.632c0 0.695 0.572 1.264 1.28 1.264h27.040c0.708 0 1.28-0.565 1.28-1.264v-13.632c0.244-0.36 0.453-0.743 0.624-1.142 0.38-0.881 0.576-1.818 0.576-2.782v-5.204c0-0.672-0.532-1.221-1.2-1.26zM4.080 2.845h23.84v3.477h-23.84v-3.477zM18.56 28.769h-5.12v-4.113h5.12v4.113zM27.936 28.769h-6.816v-5.378c0-0.699-0.572-1.264-1.28-1.264h-7.68c-0.708 0-1.28 0.565-1.28 1.264v5.378h-6.8v-9.57c0.116 0.055 0.236 0.111 0.36 0.158 0.892 0.371 1.84 0.557 2.816 0.557s1.92-0.186 2.816-0.557c0.552-0.229 1.072-0.522 1.548-0.873 0.008-0.004 0.016-0.004 0.024 0 0.477 0.353 0.997 0.646 1.548 0.873 0.892 0.371 1.84 0.557 2.816 0.557s1.92-0.186 2.816-0.557c0.552-0.229 1.072-0.522 1.548-0.873 0.008-0.004 0.016-0.004 0.024 0 0.477 0.353 0.997 0.646 1.548 0.873 0.892 0.371 1.84 0.557 2.816 0.557s1.92-0.186 2.816-0.557c0.12-0.051 0.24-0.103 0.36-0.158v9.57zM29.12 12.79c0 2.363-1.96 4.279-4.372 4.279-1.632 0-3.056-0.873-3.808-2.169-0.116-0.198-0.324-0.32-0.556-0.32h-0.024c-0.228 0-0.44 0.122-0.556 0.32-0.384 0.661-0.938 1.21-1.606 1.591s-1.427 0.58-2.198 0.578c-1.628 0-3.048-0.869-3.8-2.161-0.12-0.201-0.336-0.328-0.572-0.328s-0.456 0.126-0.572 0.328c-0.386 0.659-0.941 1.205-1.609 1.585s-1.425 0.578-2.195 0.577c-2.412 0-4.372-1.916-4.372-4.279v-3.603c0-0.012 0.008-0.020 0.020-0.020h26.2c0.012 0 0.020 0.008 0.020 0.020v3.603z"></path>
</symbol>
<symbol id="icon-carbon_tool-box" viewBox="0 0 32 32">
  <path d="M28.392 8.017h-3.38v-3.38c0-0.598-0.237-1.171-0.66-1.593s-0.996-0.66-1.593-0.66h-13.519c-0.598 0-1.171 0.237-1.593 0.66s-0.66 0.996-0.66 1.593v3.38h-3.38c-0.896 0-1.756 0.356-2.39 0.99s-0.99 1.493-0.99 2.39v15.772c0 0.598 0.237 1.171 0.66 1.593s0.996 0.66 1.593 0.66h27.038c0.598 0 1.171-0.237 1.593-0.66s0.66-0.996 0.66-1.593v-15.772c0-0.896-0.356-1.756-0.99-2.39s-1.493-0.99-2.39-0.99zM9.241 4.637h13.519v3.38h-13.519v-3.38zM29.519 27.169h-27.038v-10.139h9.013v5.633h9.013v-5.633h9.013v10.139zM13.747 17.030h4.506v3.38h-4.506v-3.38zM2.481 14.777v-3.38c0-0.299 0.119-0.585 0.33-0.797s0.498-0.33 0.797-0.33h24.785c0.299 0 0.585 0.119 0.797 0.33s0.33 0.498 0.33 0.797v3.38h-27.038z"></path>
</symbol>
<symbol id="icon-speed" viewBox="0 0 39 32">
  <path d="M36.696 9.064l-2.46 3.7c1.186 2.366 1.767 4.99 1.69 7.635s-0.809 5.231-2.13 7.525h-27.72c-1.718-2.98-2.429-6.434-2.030-9.85s1.89-6.613 4.249-9.115c2.359-2.503 5.462-4.179 8.849-4.779s6.877-0.094 9.953 1.445l3.7-2.46c-3.767-2.416-8.235-3.498-12.69-3.074s-8.639 2.329-11.883 5.412-5.36 7.164-6.011 11.592c-0.65 4.428 0.203 8.945 2.424 12.83 0.349 0.605 0.85 1.107 1.454 1.458s1.288 0.538 1.986 0.542h27.7c0.705 0.003 1.398-0.181 2.009-0.532s1.119-0.858 1.471-1.468c1.843-3.192 2.767-6.832 2.672-10.516s-1.207-7.271-3.212-10.364l-0.020 0.020zM17.116 22.744c0.371 0.372 0.813 0.667 1.298 0.868s1.006 0.305 1.532 0.305 1.046-0.104 1.532-0.305c0.486-0.201 0.927-0.496 1.298-0.868l11.32-16.98-16.98 11.32c-0.372 0.371-0.667 0.813-0.868 1.298s-0.305 1.006-0.305 1.532 0.104 1.046 0.305 1.532c0.201 0.486 0.496 0.927 0.868 1.298z"></path>
</symbol>
<symbol id="icon-peaple" viewBox="0 0 32 32">
  <path d="M18.386 8.29c-0.495 0.343-1.053 0.584-1.642 0.709s-1.197 0.131-1.788 0.019c-0.591-0.112-1.154-0.342-1.656-0.674s-0.933-0.761-1.267-1.262c-0.334-0.501-0.566-1.063-0.68-1.654s-0.111-1.199 0.012-1.788 0.362-1.148 0.703-1.644c0.341-0.496 0.778-0.919 1.284-1.245 1-0.66 2.22-0.898 3.395-0.661s2.207 0.929 2.873 1.926 0.91 2.216 0.679 3.391c-0.231 1.176-0.918 2.212-1.91 2.883h-0.002zM17.128 2.637c-0.247-0.178-0.527-0.304-0.823-0.371s-0.604-0.074-0.903-0.020-0.585 0.168-0.839 0.334c-0.254 0.167-0.473 0.383-0.642 0.635s-0.286 0.537-0.343 0.836c-0.057 0.299-0.053 0.606 0.011 0.903s0.187 0.579 0.362 0.827c0.175 0.249 0.398 0.46 0.657 0.62 0.499 0.303 1.096 0.402 1.666 0.276s1.070-0.467 1.394-0.952c0.325-0.485 0.45-1.077 0.35-1.652s-0.419-1.089-0.889-1.435v-0.002zM23.044 2.705c0.654-0.44 1.44-0.638 2.224-0.56s1.516 0.426 2.071 0.986c0.395 0.398 0.687 0.888 0.849 1.425s0.19 1.106 0.081 1.656c-0.109 0.55-0.351 1.066-0.706 1.501s-0.81 0.776-1.327 0.994c-0.621 0.26-1.306 0.328-1.966 0.196s-1.266-0.457-1.74-0.935c-0.356-0.358-0.629-0.791-0.799-1.266s-0.232-0.983-0.183-1.486c0.049-0.503 0.209-0.988 0.468-1.422s0.611-0.805 1.030-1.087l-0.002-0.002zM24.132 6.354c0.213 0.212 0.501 0.331 0.801 0.33 0.149-0 0.296-0.030 0.433-0.087s0.262-0.141 0.367-0.246c0.105-0.105 0.188-0.23 0.245-0.368s0.086-0.285 0.085-0.433-0.030-0.296-0.087-0.433c-0.057-0.137-0.141-0.262-0.246-0.367-0.211-0.212-0.496-0.334-0.796-0.34-0.149-0-0.298 0.029-0.436 0.086s-0.263 0.141-0.369 0.247-0.189 0.232-0.245 0.37c-0.057 0.138-0.085 0.287-0.084 0.436 0.001 0.302 0.119 0.591 0.331 0.807v-0.002zM4.965 26.024v-0.004c-0.115-0.003-0.226-0.043-0.317-0.113-0.041-0.046-0.072-0.101-0.092-0.159s-0.027-0.121-0.022-0.183v-6.406h-2.267v-5.059c-0.001-0.46 0.178-0.901 0.499-1.231 0.326-0.325 0.764-0.513 1.224-0.526h2.924c0.26-0.835 0.684-1.61 1.247-2.28h-4.171c-1.056 0.007-2.065 0.435-2.811 1.185-0.748 0.759-1.172 1.782-1.179 2.852v4.946c-0.008 0.308 0.045 0.614 0.158 0.9s0.283 0.547 0.499 0.766c0.204 0.228 0.451 0.412 0.728 0.541s0.577 0.201 0.882 0.212v4.103c-0.001 0.721 0.283 1.413 0.789 1.927 0.504 0.512 1.19 0.803 1.909 0.809h4.103v-2.278h-4.103zM21.511 11.25c-0.371-0.374-0.812-0.672-1.298-0.876s-1.008-0.309-1.535-0.31h-5.621c-1.057 0.008-2.067 0.435-2.811 1.185-0.748 0.759-1.172 1.782-1.179 2.851v7.204c-0.003 0.618 0.232 1.214 0.657 1.664 0.204 0.227 0.451 0.411 0.728 0.54s0.576 0.201 0.881 0.212v5.265c-0.002 0.359 0.067 0.716 0.203 1.048s0.337 0.635 0.59 0.89c0.408 0.381 0.922 0.628 1.473 0.707h4.533c0.638-0.084 1.222-0.4 1.64-0.888s0.642-1.114 0.627-1.757v-5.268c0.305-0.010 0.605-0.082 0.882-0.212s0.524-0.313 0.728-0.541c0.216-0.219 0.386-0.479 0.499-0.765s0.167-0.592 0.159-0.899v-7.203c0.002-1.065-0.413-2.088-1.156-2.852v0.002zM20.401 21.416h-2.267v7.571c-0.002 0.119-0.051 0.233-0.136 0.317-0.039 0.046-0.087 0.082-0.143 0.105s-0.115 0.034-0.175 0.030h-3.649c-0.118-0.006-0.231-0.055-0.314-0.139s-0.133-0.196-0.139-0.314v-7.571h-2.244v-7.317c0-0.46 0.179-0.902 0.499-1.231 0.326-0.325 0.764-0.513 1.224-0.526h5.621c0.343 0.006 0.678 0.112 0.961 0.306s0.505 0.465 0.637 0.783c0.086 0.212 0.129 0.44 0.125 0.669v7.317zM26.77 28.3c0.718-0.006 1.404-0.297 1.908-0.809 0.506-0.512 0.789-1.204 0.789-1.927v-4.103c0.614-0.034 1.19-0.304 1.612-0.755 0.422-0.449 0.655-1.043 0.655-1.662v-4.946c-0.007-1.070-0.431-2.092-1.179-2.852-0.744-0.75-1.754-1.176-2.811-1.185h-4.171c0.563 0.67 0.986 1.445 1.247 2.28h2.924c0.46 0.013 0.898 0.201 1.224 0.526 0.32 0.329 0.499 0.771 0.499 1.231v5.059h-2.267v6.406c0.003 0.064-0.008 0.127-0.031 0.187s-0.059 0.113-0.105 0.158c-0.091 0.070-0.202 0.11-0.317 0.113h-4.080v2.278h4.103zM6.801 2.129c-0.675-0.001-1.334 0.2-1.894 0.576s-0.994 0.911-1.248 1.536c-0.256 0.625-0.323 1.311-0.191 1.973s0.455 1.271 0.93 1.751c0.475 0.479 1.082 0.806 1.744 0.938s1.348 0.065 1.97-0.195c0.623-0.259 1.154-0.698 1.526-1.261s0.568-1.224 0.562-1.898c0-0.907-0.358-1.777-0.997-2.419-0.315-0.317-0.689-0.569-1.101-0.741s-0.855-0.261-1.301-0.261zM6.801 6.689c-0.149 0-0.298-0.029-0.436-0.086s-0.263-0.141-0.369-0.247c-0.105-0.106-0.189-0.232-0.245-0.37s-0.085-0.287-0.084-0.436c0.001-0.301 0.12-0.59 0.332-0.803s0.5-0.335 0.801-0.337c0.3 0.005 0.586 0.127 0.798 0.34s0.332 0.5 0.335 0.8c-0.001 0.301-0.12 0.59-0.332 0.803s-0.5 0.335-0.801 0.337z"></path>
</symbol>
<symbol id="icon-icn-xl1" viewBox="0 0 32 32">
  <path d="M25.302 17.331c-0.156-0.157-0.342-0.281-0.546-0.365s-0.423-0.128-0.644-0.128c-0.221 0-0.44 0.044-0.644 0.128s-0.39 0.209-0.546 0.365l-2.684 2.684c-1.244-0.37-3.566-1.212-5.038-2.684s-2.313-3.793-2.684-5.038l2.684-2.684c0.156-0.156 0.281-0.342 0.365-0.546s0.128-0.423 0.128-0.644c0-0.221-0.044-0.44-0.128-0.644s-0.209-0.39-0.365-0.546l-6.735-6.735c-0.156-0.156-0.342-0.281-0.546-0.365s-0.423-0.128-0.644-0.128c-0.221 0-0.44 0.044-0.644 0.128s-0.39 0.209-0.546 0.365l-4.566 4.566c-0.64 0.64-1 1.519-0.987 2.416 0.039 2.398 0.673 10.725 7.237 17.289s14.891 7.196 17.29 7.237h0.047c0.889 0 1.729-0.35 2.366-0.987l4.566-4.566c0.157-0.156 0.281-0.342 0.365-0.546s0.128-0.423 0.128-0.644c0-0.221-0.044-0.44-0.128-0.644s-0.209-0.39-0.365-0.546l-6.735-6.737zM25.088 28.632c-2.101-0.035-9.291-0.599-14.94-6.25-5.667-5.667-6.216-12.882-6.25-14.941l3.376-3.376 4.354 4.354-2.177 2.177c-0.198 0.198-0.343 0.442-0.423 0.71s-0.092 0.552-0.035 0.826c0.040 0.194 1.029 4.785 3.824 7.58s7.387 3.783 7.58 3.824c0.274 0.059 0.558 0.048 0.826-0.032s0.512-0.226 0.709-0.424l2.179-2.177 4.354 4.354-3.378 3.376z"></path>
</symbol>
<symbol id="icon-icn-xl2" viewBox="0 0 32 32">
  <path d="M16.219 18.889c3.554 0 6.444-2.791 6.444-6.222s-2.89-6.222-6.444-6.222c-3.554 0-6.444 2.791-6.444 6.222s2.89 6.222 6.444 6.222zM16.219 9.555c1.777 0 3.222 1.395 3.222 3.111s-1.445 3.111-3.222 3.111c-1.777 0-3.222-1.395-3.222-3.111s1.445-3.111 3.222-3.111z"></path>
  <path d="M15.3 31.484c0.268 0.191 0.589 0.293 0.918 0.293s0.65-0.103 0.918-0.293c0.481-0.339 11.794-8.479 11.748-18.64 0-6.96-5.683-12.622-12.667-12.622s-12.667 5.663-12.667 12.614c-0.046 10.169 11.267 18.309 11.748 18.648zM16.219 3.378c5.239 0 9.5 4.246 9.5 9.475 0.033 7.002-6.948 13.29-9.5 15.352-2.551-2.064-9.533-8.353-9.5-15.36 0-5.221 4.261-9.467 9.5-9.467z"></path>
</symbol>
<symbol id="icon-icn-xl3" viewBox="0 0 32 32">
  <path d="M31.266 0.961c-0.173-0.179-0.392-0.303-0.63-0.357s-0.487-0.037-0.716 0.051l-28.204 10.666c-0.243 0.096-0.453 0.267-0.6 0.489s-0.227 0.487-0.227 0.757c0 0.271 0.079 0.535 0.227 0.757s0.357 0.393 0.6 0.489l12.307 5.12 4.923 12.799c0.093 0.242 0.251 0.45 0.456 0.599s0.448 0.233 0.698 0.24c0.259-0.005 0.51-0.093 0.721-0.25s0.37-0.377 0.458-0.63l10.256-29.332c0.087-0.236 0.108-0.493 0.061-0.741s-0.162-0.477-0.33-0.659zM20.1 27.506l-3.577-9.333 6.141-6.386-1.808-1.88-6.192 6.44-8.923-3.773 22.473-8.44-8.115 23.372z"></path>
</symbol>
<symbol id="icon-youtube" viewBox="0 0 43 32">
  <path d="M41.724 5.212c-0.242-0.947-0.718-1.811-1.377-2.505s-1.481-1.193-2.382-1.448c-3.318-0.944-16.653-0.944-16.653-0.944s-13.334 0-16.653 0.944c-0.901 0.255-1.723 0.754-2.382 1.448s-1.135 1.558-1.377 2.505c-0.62 3.559-0.92 7.17-0.898 10.788-0.022 3.618 0.278 7.229 0.898 10.788 0.243 0.948 0.718 1.811 1.377 2.505s1.481 1.193 2.382 1.448c3.318 0.944 16.653 0.944 16.653 0.944s13.334 0 16.653-0.944c0.901-0.255 1.723-0.755 2.382-1.448s1.135-1.558 1.377-2.505c0.62-3.559 0.92-7.171 0.898-10.788 0.022-3.618-0.279-7.229-0.898-10.788zM17.050 22.722v-13.445l11.066 6.723-11.066 6.722z"></path>
</symbol>
<symbol id="icon-twitter" viewBox="0 0 38 32">
  <path d="M38.401 3.945c-1.411 0.617-2.946 1.062-4.527 1.235 1.642-0.99 2.871-2.553 3.457-4.397-1.54 0.93-3.228 1.582-4.988 1.927-0.736-0.798-1.625-1.434-2.613-1.867s-2.054-0.656-3.131-0.654c-4.356 0-7.86 3.583-7.86 7.981 0 0.617 0.074 1.235 0.194 1.829-6.523-0.346-12.341-3.509-16.208-8.35-0.705 1.222-1.074 2.612-1.069 4.028 0 2.769 1.388 5.211 3.503 6.648-1.247-0.050-2.465-0.398-3.554-1.015v0.098c0 3.878 2.701 7.092 6.302 7.831-0.676 0.178-1.371 0.269-2.070 0.271-0.512 0-0.996-0.052-1.484-0.122 0.996 3.162 3.895 5.459 7.348 5.534-2.701 2.147-6.085 3.41-9.759 3.41-0.659 0-1.268-0.023-1.899-0.098 3.485 2.269 7.62 3.579 12.073 3.579 14.456 0 22.367-12.154 22.367-22.703 0-0.346 0-0.692-0.023-1.039 1.531-1.137 2.872-2.545 3.941-4.126z"></path>
</symbol>
<symbol id="icon-instagram" viewBox="0 0 32 32">
  <path d="M16.002 7.797c-4.54 0-8.204 3.664-8.204 8.204s3.664 8.204 8.204 8.204 8.204-3.664 8.204-8.204c0-4.54-3.664-8.204-8.204-8.204zM16.002 21.333c-2.936 0-5.332-2.396-5.332-5.332s2.396-5.332 5.332-5.332 5.332 2.396 5.332 5.332c0 2.936-2.396 5.332-5.332 5.332zM24.542 5.549c-1.060 0-1.916 0.856-1.916 1.916s0.856 1.916 1.916 1.916c1.060 0 1.916-0.852 1.916-1.916 0-0.252-0.049-0.501-0.145-0.734s-0.237-0.444-0.415-0.622-0.389-0.319-0.622-0.415c-0.233-0.096-0.482-0.146-0.734-0.145zM31.994 16.001c0-2.208 0.020-4.396-0.104-6.6-0.124-2.56-0.708-4.832-2.58-6.704-1.876-1.876-4.144-2.456-6.704-2.58-2.208-0.124-4.396-0.104-6.6-0.104-2.208 0-4.396-0.020-6.6 0.104-2.56 0.124-4.832 0.708-6.704 2.58-1.876 1.876-2.456 4.144-2.58 6.704-0.124 2.208-0.104 4.396-0.104 6.6s-0.020 4.396 0.104 6.6c0.124 2.56 0.708 4.832 2.58 6.704 1.876 1.876 4.144 2.456 6.704 2.58 2.208 0.124 4.396 0.104 6.6 0.104 2.208 0 4.396 0.020 6.6-0.104 2.56-0.124 4.832-0.708 6.704-2.58 1.876-1.876 2.456-4.144 2.58-6.704 0.128-2.204 0.104-4.392 0.104-6.6zM28.474 25.433c-0.292 0.728-0.644 1.272-1.208 1.832-0.564 0.564-1.104 0.916-1.832 1.208-2.104 0.836-7.1 0.648-9.432 0.648s-7.332 0.188-9.436-0.644c-0.728-0.292-1.272-0.644-1.832-1.208-0.564-0.564-0.916-1.104-1.208-1.832-0.832-2.108-0.644-7.104-0.644-9.436s-0.188-7.332 0.644-9.436c0.292-0.728 0.644-1.272 1.208-1.832s1.104-0.916 1.832-1.208c2.104-0.832 7.104-0.644 9.436-0.644s7.332-0.188 9.436 0.644c0.728 0.292 1.272 0.644 1.832 1.208 0.564 0.564 0.916 1.104 1.208 1.832 0.832 2.104 0.644 7.104 0.644 9.436s0.188 7.328-0.648 9.432z"></path>
</symbol>
<symbol id="icon-facebook" viewBox="0 0 32 32">
  <path d="M30.72 0h-29.44c-0.708 0-1.28 0.572-1.28 1.28v29.44c0 0.708 0.572 1.28 1.28 1.28h29.44c0.708 0 1.28-0.572 1.28-1.28v-29.44c0-0.708-0.572-1.28-1.28-1.28zM27.024 9.34h-2.556c-2.004 0-2.392 0.952-2.392 2.352v3.084h4.784l-0.624 4.828h-4.16v12.396h-4.988v-12.392h-4.172v-4.832h4.172v-3.56c0-4.132 2.524-6.384 6.212-6.384 1.768 0 3.284 0.132 3.728 0.192v4.316h-0.004z"></path>
</symbol>
<symbol id="icon-youtube_color" viewBox="0 0 43 32">
  <path fill="#e42f08" style="fill: var(--color1, #e42f08)" d="M41.724 5.212c-0.242-0.947-0.718-1.811-1.377-2.505s-1.481-1.193-2.382-1.448c-3.318-0.944-16.653-0.944-16.653-0.944s-13.334 0-16.653 0.944c-0.901 0.255-1.723 0.754-2.382 1.448s-1.135 1.558-1.377 2.505c-0.62 3.559-0.92 7.17-0.898 10.788-0.022 3.618 0.278 7.229 0.898 10.788 0.243 0.948 0.718 1.811 1.377 2.505s1.481 1.193 2.382 1.448c3.318 0.944 16.653 0.944 16.653 0.944s13.334 0 16.653-0.944c0.901-0.255 1.723-0.755 2.382-1.448s1.135-1.558 1.377-2.505c0.62-3.559 0.92-7.171 0.898-10.788 0.022-3.618-0.279-7.229-0.898-10.788zM17.050 22.722v-13.445l11.066 6.723-11.066 6.722z"></path>
</symbol>
<symbol id="icon-twitter-vector" viewBox="0 0 38 32">
  <path d="M38.401 3.945c-1.411 0.617-2.946 1.062-4.527 1.235 1.642-0.99 2.871-2.553 3.457-4.397-1.54 0.93-3.228 1.582-4.988 1.927-0.736-0.798-1.625-1.434-2.613-1.867s-2.054-0.656-3.131-0.654c-4.356 0-7.86 3.583-7.86 7.981 0 0.617 0.074 1.235 0.194 1.829-6.523-0.346-12.341-3.509-16.208-8.35-0.705 1.222-1.074 2.612-1.069 4.028 0 2.769 1.388 5.211 3.503 6.648-1.247-0.050-2.465-0.398-3.554-1.015v0.098c0 3.878 2.701 7.092 6.302 7.831-0.676 0.178-1.371 0.269-2.070 0.271-0.512 0-0.996-0.052-1.484-0.122 0.996 3.162 3.895 5.459 7.348 5.534-2.701 2.147-6.085 3.41-9.759 3.41-0.659 0-1.268-0.023-1.899-0.098 3.485 2.269 7.62 3.579 12.073 3.579 14.456 0 22.367-12.154 22.367-22.703 0-0.346 0-0.692-0.023-1.039 1.531-1.137 2.872-2.545 3.941-4.126z"></path>
</symbol>
</defs>
</svg>
